<?xml version="1.0" encoding="UTF-8" standalone="no"?><!DOCTYPE svg PUBLIC "-//W3C//DTD SVG 1.1//EN" "http://www.w3.org/Graphics/SVG/1.1/DTD/svg11.dtd"><!-- Generated by graphviz version 2.40.1 (20161225.0304)
 --><!-- Title: G Pages: 1 --><svg xmlns="http://www.w3.org/2000/svg" xmlns:xlink="http://www.w3.org/1999/xlink" width="392pt" height="700pt" viewBox="0.00 0.00 392.00 700.40">
<g id="graph0" class="graph" transform="scale(1 1) rotate(0) translate(4 696.4)">
<title>G</title>
<polygon fill="#ffffff" stroke="transparent" points="-4,4 -4,-696.4 388,-696.4 388,4 -4,4"/>
<g id="clust1" class="cluster">
<title>cluster_0</title>
<polygon fill="none" stroke="#000000" points="8,-8 8,-684.4 376,-684.4 376,-8 8,-8"/>
<text text-anchor="middle" x="192" y="-673.2" font-family="Times,serif" font-size="8.00" fill="#000000">Original data</text>
<text text-anchor="middle" x="192" y="-663.6" font-family="Times,serif" font-size="8.00" fill="#000000">(2010-12-01 - 2011-12-09)</text>
</g>
<g id="clust3" class="cluster">
<title>cluster_1</title>
<polygon fill="none" stroke="#006400" points="16,-159 16,-531.8 280,-531.8 280,-159 16,-159"/>
<text text-anchor="middle" x="148" y="-520.6" font-family="Times,serif" font-size="8.00" fill="#000000">Offline</text>
<text text-anchor="middle" x="148" y="-511" font-family="Times,serif" font-size="8.00" fill="#000000">(before 01.10.2011)</text>
</g>
<g id="clust6" class="cluster">
<title>cluster_2</title>
<polygon fill="none" stroke="#104e8b" points="288,-451.2 288,-531.8 368,-531.8 368,-451.2 288,-451.2"/>
<text text-anchor="middle" x="328" y="-520.6" font-family="Times,serif" font-size="8.00" fill="#000000">Online</text>
<text text-anchor="middle" x="328" y="-511" font-family="Times,serif" font-size="8.00" fill="#000000">(after 01.10.2011)</text>
</g>
<g id="clust7" class="cluster">
<title>cluster_3</title>
<polygon fill="none" stroke="#000000" stroke-width="0" points="191,-81.4 191,-151 355,-151 355,-81.4 191,-81.4"/>
<text text-anchor="middle" x="273" y="-139.8" font-family="Times,serif" font-size="8.00" fill="#000000">Cancellation prediction</text>
</g>
<!-- data_csv -->
<g id="node1" class="node">
<title>data_csv</title>
<path fill="#c0c0c0" stroke="#000000" d="M242.8273,-645.9654C242.8273,-647.8618 229.9065,-649.4022 214,-649.4022 198.0935,-649.4022 185.1727,-647.8618 185.1727,-645.9654 185.1727,-645.9654 185.1727,-615.0346 185.1727,-615.0346 185.1727,-613.1382 198.0935,-611.5978 214,-611.5978 229.9065,-611.5978 242.8273,-613.1382 242.8273,-615.0346 242.8273,-615.0346 242.8273,-645.9654 242.8273,-645.9654"/>
<path fill="none" stroke="#000000" d="M242.8273,-645.9654C242.8273,-644.0691 229.9065,-642.5286 214,-642.5286 198.0935,-642.5286 185.1727,-644.0691 185.1727,-645.9654"/>
<text text-anchor="middle" x="214" y="-632.9" font-family="Times,serif" font-size="8.00" fill="#000000">data.csv</text>
<text text-anchor="middle" x="214" y="-623.3" font-family="Times,serif" font-size="8.00" fill="#000000">[541909 x 8]</text>
</g>
<!-- t_split_by_invoice_date -->
<g id="node2" class="node">
<title>t_split_by_invoice_date</title>
<ellipse fill="#ffffff" stroke="#000000" cx="214" cy="-557.8" rx="130.8347" ry="18"/>
<text text-anchor="middle" x="214" y="-555.4" font-family="Times,serif" font-size="8.00" fill="#000000">customer_segmentation_toolkit.load_split.split_by_invoice_date()</text>
</g>
<!-- data_csv&#45;&gt;t_split_by_invoice_date -->
<g id="edge1" class="edge">
<title>data_csv-&gt;t_split_by_invoice_date</title>
<path fill="none" stroke="#000000" d="M214,-611.7779C214,-603.9415 214,-594.6629 214,-586.0285"/>
<polygon fill="#000000" stroke="#000000" points="217.5001,-585.9562 214,-575.9563 210.5001,-585.9563 217.5001,-585.9562"/>
</g>
<!-- offline_raw -->
<g id="node4" class="node">
<title>offline_raw</title>
<path fill="#c0c0c0" stroke="#000000" d="M202.976,-493.3654C202.976,-495.2618 188.1956,-496.8022 170,-496.8022 151.8044,-496.8022 137.024,-495.2618 137.024,-493.3654 137.024,-493.3654 137.024,-462.4346 137.024,-462.4346 137.024,-460.5382 151.8044,-458.9978 170,-458.9978 188.1956,-458.9978 202.976,-460.5382 202.976,-462.4346 202.976,-462.4346 202.976,-493.3654 202.976,-493.3654"/>
<path fill="none" stroke="#000000" d="M202.976,-493.3654C202.976,-491.4691 188.1956,-489.9286 170,-489.9286 151.8044,-489.9286 137.024,-491.4691 137.024,-493.3654"/>
<text text-anchor="middle" x="170" y="-480.3" font-family="Times,serif" font-size="8.00" fill="#000000">offline_raw.csv</text>
<text text-anchor="middle" x="170" y="-470.7" font-family="Times,serif" font-size="8.00" fill="#000000">[370931 x 8]</text>
</g>
<!-- t_split_by_invoice_date&#45;&gt;offline_raw -->
<g id="edge2" class="edge">
<title>t_split_by_invoice_date-&gt;offline_raw</title>
<path fill="none" stroke="#000000" d="M204.0157,-539.6695C198.5089,-529.6696 191.5532,-517.0386 185.3687,-505.8082"/>
<polygon fill="#000000" stroke="#000000" points="188.2936,-503.8638 180.4039,-496.7925 182.1619,-507.2405 188.2936,-503.8638"/>
</g>
<!-- online_raw -->
<g id="node5" class="node">
<title>online_raw</title>
<path fill="#c0c0c0" stroke="#000000" d="M360.1505,-493.3654C360.1505,-495.2618 345.7402,-496.8022 328,-496.8022 310.2598,-496.8022 295.8495,-495.2618 295.8495,-493.3654 295.8495,-493.3654 295.8495,-462.4346 295.8495,-462.4346 295.8495,-460.5382 310.2598,-458.9978 328,-458.9978 345.7402,-458.9978 360.1505,-460.5382 360.1505,-462.4346 360.1505,-462.4346 360.1505,-493.3654 360.1505,-493.3654"/>
<path fill="none" stroke="#000000" d="M360.1505,-493.3654C360.1505,-491.4691 345.7402,-489.9286 328,-489.9286 310.2598,-489.9286 295.8495,-491.4691 295.8495,-493.3654"/>
<text text-anchor="middle" x="328" y="-480.3" font-family="Times,serif" font-size="8.00" fill="#000000">online_raw.csv</text>
<text text-anchor="middle" x="328" y="-470.7" font-family="Times,serif" font-size="8.00" fill="#000000">[170978 x 8]</text>
</g>
<!-- t_split_by_invoice_date&#45;&gt;online_raw -->
<g id="edge3" class="edge">
<title>t_split_by_invoice_date-&gt;online_raw</title>
<path fill="none" stroke="#000000" d="M267.5164,-541.3691C273.3145,-538.5969 278.9387,-535.4202 284,-531.8 294.1067,-524.5709 303.1955,-514.4486 310.4527,-504.9254"/>
<polygon fill="#000000" stroke="#000000" points="313.3073,-506.9507 316.3381,-496.7986 307.6379,-502.8449 313.3073,-506.9507"/>
</g>
<!-- kafka_input -->
<g id="node3" class="node">
<title>kafka_input</title>
<path fill="#c0c0c0" stroke="#000000" d="M349.2124,-419.9654C349.2124,-421.8618 337.0154,-423.4022 322,-423.4022 306.9846,-423.4022 294.7876,-421.8618 294.7876,-419.9654 294.7876,-419.9654 294.7876,-389.0346 294.7876,-389.0346 294.7876,-387.1382 306.9846,-385.5978 322,-385.5978 337.0154,-385.5978 349.2124,-387.1382 349.2124,-389.0346 349.2124,-389.0346 349.2124,-419.9654 349.2124,-419.9654"/>
<path fill="none" stroke="#000000" d="M349.2124,-419.9654C349.2124,-418.0691 337.0154,-416.5286 322,-416.5286 306.9846,-416.5286 294.7876,-418.0691 294.7876,-419.9654"/>
<text text-anchor="middle" x="322" y="-406.9" font-family="Times,serif" font-size="8.00" fill="#000000">kafka_input</text>
<text text-anchor="middle" x="322" y="-397.3" font-family="Times,serif" font-size="8.00" fill="#000000">[1 x 8]</text>
</g>
<!-- model_inference -->
<g id="node6" class="node">
<title>model_inference</title>
<polygon fill="#c0c0c0" stroke="#000000" points="346.7525,-125.4 283.2475,-125.4 279.2475,-121.4 279.2475,-89.4 342.7525,-89.4 346.7525,-93.4 346.7525,-125.4"/>
<polyline fill="none" stroke="#000000" points="342.7525,-121.4 279.2475,-121.4 "/>
<polyline fill="none" stroke="#000000" points="342.7525,-121.4 342.7525,-89.4 "/>
<polyline fill="none" stroke="#000000" points="342.7525,-121.4 346.7525,-125.4 "/>
<text text-anchor="middle" x="313" y="-109.8" font-family="Times,serif" font-size="8.00" fill="#000000">model inference</text>
<text text-anchor="middle" x="313" y="-100.2" font-family="Times,serif" font-size="8.00" fill="#000000">(online)</text>
</g>
<!-- kafka_input&#45;&gt;model_inference -->
<g id="edge5" class="edge">
<title>kafka_input-&gt;model_inference</title>
<path fill="none" stroke="#000000" d="M321.4233,-385.4631C319.8857,-334.7039 315.6812,-195.9107 313.86,-135.7907"/>
<polygon fill="#000000" stroke="#000000" points="317.3502,-135.4089 313.5489,-125.5195 310.3534,-135.6209 317.3502,-135.4089"/>
</g>
<!-- t_clean_data_rows -->
<g id="node9" class="node">
<title>t_clean_data_rows</title>
<ellipse fill="#ffffff" stroke="#000000" cx="148" cy="-404.5" rx="124.0419" ry="18"/>
<text text-anchor="middle" x="148" y="-402.1" font-family="Times,serif" font-size="8.00" fill="#000000">customer_segmentation_toolkit.clean_rows.clean_data_rows()</text>
</g>
<!-- offline_raw&#45;&gt;t_clean_data_rows -->
<g id="edge6" class="edge">
<title>offline_raw-&gt;t_clean_data_rows</title>
<path fill="none" stroke="#000000" d="M164.3345,-458.9977C161.8924,-450.8502 158.9876,-441.1586 156.3094,-432.2233"/>
<polygon fill="#000000" stroke="#000000" points="159.6426,-431.1532 153.4188,-422.5791 152.9373,-433.163 159.6426,-431.1532"/>
</g>
<!-- online_raw&#45;&gt;kafka_input -->
<g id="edge4" class="edge">
<title>online_raw-&gt;kafka_input</title>
<path fill="none" stroke="#000000" stroke-dasharray="5,2" d="M326.4549,-458.9977C325.818,-451.2066 325.0657,-442.0035 324.3624,-433.4"/>
<polygon fill="#000000" stroke="#000000" points="327.8431,-433.0198 323.5399,-423.3383 320.8664,-433.5902 327.8431,-433.0198"/>
</g>
<!-- kafka_output -->
<g id="node13" class="node">
<title>kafka_output</title>
<path fill="#c0c0c0" stroke="#000000" d="M342.2124,-50.1654C342.2124,-52.0618 329.1189,-53.6022 313,-53.6022 296.8811,-53.6022 283.7876,-52.0618 283.7876,-50.1654 283.7876,-50.1654 283.7876,-19.2346 283.7876,-19.2346 283.7876,-17.3382 296.8811,-15.7978 313,-15.7978 329.1189,-15.7978 342.2124,-17.3382 342.2124,-19.2346 342.2124,-19.2346 342.2124,-50.1654 342.2124,-50.1654"/>
<path fill="none" stroke="#000000" d="M342.2124,-50.1654C342.2124,-48.2691 329.1189,-46.7286 313,-46.7286 296.8811,-46.7286 283.7876,-48.2691 283.7876,-50.1654"/>
<text text-anchor="middle" x="313" y="-37.1" font-family="Times,serif" font-size="8.00" fill="#000000">kafka_output</text>
<text text-anchor="middle" x="313" y="-27.5" font-family="Times,serif" font-size="8.00" fill="#000000">[1 x 8]</text>
</g>
<!-- model_inference&#45;&gt;kafka_output -->
<g id="edge13" class="edge">
<title>model_inference-&gt;kafka_output</title>
<path fill="none" stroke="#000000" d="M313,-89.0547C313,-81.3393 313,-72.176 313,-63.5924"/>
<polygon fill="#000000" stroke="#000000" points="316.5001,-63.5461 313,-53.5462 309.5001,-63.5462 316.5001,-63.5461"/>
</g>
<!-- offline_cleaned -->
<g id="node7" class="node">
<title>offline_cleaned</title>
<path fill="#c0c0c0" stroke="#000000" d="M187.4155,-346.5654C187.4155,-348.4618 169.7488,-350.0022 148,-350.0022 126.2512,-350.0022 108.5845,-348.4618 108.5845,-346.5654 108.5845,-346.5654 108.5845,-315.6346 108.5845,-315.6346 108.5845,-313.7382 126.2512,-312.1978 148,-312.1978 169.7488,-312.1978 187.4155,-313.7382 187.4155,-315.6346 187.4155,-315.6346 187.4155,-346.5654 187.4155,-346.5654"/>
<path fill="none" stroke="#000000" d="M187.4155,-346.5654C187.4155,-344.6691 169.7488,-343.1286 148,-343.1286 126.2512,-343.1286 108.5845,-344.6691 108.5845,-346.5654"/>
<text text-anchor="middle" x="148" y="-333.5" font-family="Times,serif" font-size="8.00" fill="#000000">offline_cleaned.csv</text>
<text text-anchor="middle" x="148" y="-323.9" font-family="Times,serif" font-size="8.00" fill="#000000">[263815 x 10]</text>
</g>
<!-- t_transform -->
<g id="node10" class="node">
<title>t_transform</title>
<ellipse fill="#ffffff" stroke="#000000" cx="148" cy="-258.4" rx="102.2273" ry="18"/>
<text text-anchor="middle" x="148" y="-256" font-family="Times,serif" font-size="8.00" fill="#000000">featurologists.cancellation_prediction.preprocess()</text>
</g>
<!-- offline_cleaned&#45;&gt;t_transform -->
<g id="edge8" class="edge">
<title>offline_cleaned-&gt;t_transform</title>
<path fill="none" stroke="#000000" d="M148,-312.3779C148,-304.5415 148,-295.2629 148,-286.6285"/>
<polygon fill="#000000" stroke="#000000" points="151.5001,-286.5562 148,-276.5563 144.5001,-286.5563 151.5001,-286.5562"/>
</g>
<!-- offline_clusters -->
<g id="node8" class="node">
<title>offline_clusters</title>
<path fill="#c0c0c0" stroke="#000000" d="M169.7404,-201.1654C169.7404,-203.0618 148.3424,-204.6022 122,-204.6022 95.6576,-204.6022 74.2596,-203.0618 74.2596,-201.1654 74.2596,-201.1654 74.2596,-170.2346 74.2596,-170.2346 74.2596,-168.3382 95.6576,-166.7978 122,-166.7978 148.3424,-166.7978 169.7404,-168.3382 169.7404,-170.2346 169.7404,-170.2346 169.7404,-201.1654 169.7404,-201.1654"/>
<path fill="none" stroke="#000000" d="M169.7404,-201.1654C169.7404,-199.2691 148.3424,-197.7286 122,-197.7286 95.6576,-197.7286 74.2596,-199.2691 74.2596,-201.1654"/>
<text text-anchor="middle" x="122" y="-188.1" font-family="Times,serif" font-size="8.00" fill="#000000">offline_preprocessed.csv</text>
<text text-anchor="middle" x="122" y="-178.5" font-family="Times,serif" font-size="8.00" fill="#000000">[3616 x 14]</text>
</g>
<!-- model_train -->
<g id="node12" class="node">
<title>model_train</title>
<polygon fill="#c0c0c0" stroke="#000000" points="261.3817,-125.4 202.6183,-125.4 198.6183,-121.4 198.6183,-89.4 257.3817,-89.4 261.3817,-93.4 261.3817,-125.4"/>
<polyline fill="none" stroke="#000000" points="257.3817,-121.4 198.6183,-121.4 "/>
<polyline fill="none" stroke="#000000" points="257.3817,-121.4 257.3817,-89.4 "/>
<polyline fill="none" stroke="#000000" points="257.3817,-121.4 261.3817,-125.4 "/>
<text text-anchor="middle" x="230" y="-105" font-family="Times,serif" font-size="8.00" fill="#000000">model training</text>
</g>
<!-- offline_clusters&#45;&gt;model_train -->
<g id="edge11" class="edge">
<title>offline_clusters-&gt;model_train</title>
<path fill="none" stroke="#000000" d="M147.8687,-166.9452C162.5063,-156.3329 180.9701,-142.9467 196.682,-131.5556"/>
<polygon fill="#000000" stroke="#000000" points="199.0442,-134.166 205.086,-125.4627 194.9354,-128.4988 199.0442,-134.166"/>
</g>
<!-- t_clean_data_rows&#45;&gt;offline_cleaned -->
<g id="edge7" class="edge">
<title>t_clean_data_rows-&gt;offline_cleaned</title>
<path fill="none" stroke="#000000" d="M148,-386.3562C148,-378.3618 148,-368.7732 148,-359.8446"/>
<polygon fill="#000000" stroke="#000000" points="151.5001,-359.8014 148,-349.8014 144.5001,-359.8015 151.5001,-359.8014"/>
</g>
<!-- t_transform&#45;&gt;offline_clusters -->
<g id="edge9" class="edge">
<title>t_transform-&gt;offline_clusters</title>
<path fill="none" stroke="#000000" d="M141.573,-240.4292C138.7323,-232.4861 135.3233,-222.954 132.1521,-214.0869"/>
<polygon fill="#000000" stroke="#000000" points="135.3788,-212.7155 128.7157,-204.4782 128.7877,-215.0728 135.3788,-212.7155"/>
</g>
<!-- country_encoder -->
<g id="node11" class="node">
<title>country_encoder</title>
<path fill="#c0c0c0" stroke="#000000" d="M271.7548,-201.1654C271.7548,-203.0618 253.0396,-204.6022 230,-204.6022 206.9604,-204.6022 188.2452,-203.0618 188.2452,-201.1654 188.2452,-201.1654 188.2452,-170.2346 188.2452,-170.2346 188.2452,-168.3382 206.9604,-166.7978 230,-166.7978 253.0396,-166.7978 271.7548,-168.3382 271.7548,-170.2346 271.7548,-170.2346 271.7548,-201.1654 271.7548,-201.1654"/>
<path fill="none" stroke="#000000" d="M271.7548,-201.1654C271.7548,-199.2691 253.0396,-197.7286 230,-197.7286 206.9604,-197.7286 188.2452,-199.2691 188.2452,-201.1654"/>
<text text-anchor="middle" x="230" y="-188.1" font-family="Times,serif" font-size="8.00" fill="#000000">country_encoder.npy</text>
<text text-anchor="middle" x="230" y="-178.5" font-family="Times,serif" font-size="8.00" fill="#000000">[1 x 36]</text>
</g>
<!-- t_transform&#45;&gt;country_encoder -->
<g id="edge10" class="edge">
<title>t_transform-&gt;country_encoder</title>
<path fill="none" stroke="#000000" d="M168.2697,-240.4292C178.1923,-231.632 190.3132,-220.8858 201.1789,-211.2524"/>
<polygon fill="#000000" stroke="#000000" points="203.6589,-213.7311 208.8197,-204.4782 199.0151,-208.4933 203.6589,-213.7311"/>
</g>
<!-- country_encoder&#45;&gt;model_train -->
<g id="edge12" class="edge">
<title>country_encoder-&gt;model_train</title>
<path fill="none" stroke="#000000" d="M230,-166.7458C230,-157.4745 230,-146.1225 230,-135.8387"/>
<polygon fill="#000000" stroke="#000000" points="233.5001,-135.6405 230,-125.6405 226.5001,-135.6406 233.5001,-135.6405"/>
</g>
</g>
</svg>
