<?xml version="1.0" encoding="UTF-8" standalone="no"?><!DOCTYPE svg PUBLIC "-//W3C//DTD SVG 1.1//EN" "http://www.w3.org/Graphics/SVG/1.1/DTD/svg11.dtd"><!-- Generated by graphviz version 2.40.1 (20161225.0304)
 --><!-- Title: G Pages: 1 --><svg xmlns="http://www.w3.org/2000/svg" xmlns:xlink="http://www.w3.org/1999/xlink" width="256pt" height="695pt" viewBox="0.00 0.00 256.00 694.80">
<g id="graph0" class="graph" transform="scale(1 1) rotate(0) translate(4 690.8)">
<title>G</title>
<polygon fill="#ffffff" stroke="transparent" points="-4,4 -4,-690.8 252,-690.8 252,4 -4,4"/>
<g id="clust1" class="cluster">
<title>cluster_0</title>
<polygon fill="none" stroke="#000000" points="8,-8 8,-678.8 240,-678.8 240,-8 8,-8"/>
<text text-anchor="middle" x="124" y="-667.6" font-family="Times,serif" font-size="8.00" fill="#000000">Original data</text>
<text text-anchor="middle" x="124" y="-658" font-family="Times,serif" font-size="8.00" fill="#000000">(2010-12-01 - 2011-12-09)</text>
</g>
<g id="clust3" class="cluster">
<title>cluster_1</title>
<polygon fill="none" stroke="#006400" points="16,-153.4 16,-526.2 144,-526.2 144,-153.4 16,-153.4"/>
<text text-anchor="middle" x="80" y="-515" font-family="Times,serif" font-size="8.00" fill="#000000">Offline</text>
<text text-anchor="middle" x="80" y="-505.4" font-family="Times,serif" font-size="8.00" fill="#000000">(before 01.10.2011)</text>
</g>
<g id="clust4" class="cluster">
<title>cluster_2</title>
<polygon fill="none" stroke="#104e8b" points="152,-445.6 152,-526.2 232,-526.2 232,-445.6 152,-445.6"/>
<text text-anchor="middle" x="192" y="-515" font-family="Times,serif" font-size="8.00" fill="#000000">Online</text>
<text text-anchor="middle" x="192" y="-505.4" font-family="Times,serif" font-size="8.00" fill="#000000">(after 01.10.2011)</text>
</g>
<g id="clust5" class="cluster">
<title>cluster_3</title>
<polygon fill="none" stroke="#000000" stroke-width="0" points="49,-81.4 49,-133.4 217,-133.4 217,-81.4 49,-81.4"/>
</g>
<!-- data_csv -->
<g id="node1" class="node">
<title>data_csv</title>
<path fill="#c0c0c0" stroke="#000000" d="M152.8273,-640.3654C152.8273,-642.2618 139.9065,-643.8022 124,-643.8022 108.0935,-643.8022 95.1727,-642.2618 95.1727,-640.3654 95.1727,-640.3654 95.1727,-609.4346 95.1727,-609.4346 95.1727,-607.5382 108.0935,-605.9978 124,-605.9978 139.9065,-605.9978 152.8273,-607.5382 152.8273,-609.4346 152.8273,-609.4346 152.8273,-640.3654 152.8273,-640.3654"/>
<path fill="none" stroke="#000000" d="M152.8273,-640.3654C152.8273,-638.4691 139.9065,-636.9286 124,-636.9286 108.0935,-636.9286 95.1727,-638.4691 95.1727,-640.3654"/>
<text text-anchor="middle" x="124" y="-627.3" font-family="Times,serif" font-size="8.00" fill="#000000">data.csv</text>
<text text-anchor="middle" x="124" y="-617.7" font-family="Times,serif" font-size="8.00" fill="#000000">[541909 x 8]</text>
</g>
<!-- t_split_by_invoice_date -->
<g id="node2" class="node">
<title>t_split_by_invoice_date</title>
<ellipse fill="#ffffff" stroke="#000000" cx="124" cy="-552.2" rx="65.9403" ry="18"/>
<text text-anchor="middle" x="124" y="-549.8" font-family="Times,serif" font-size="8.00" fill="#000000">toolkit:split_by_invoice_date()</text>
</g>
<!-- data_csv&#45;&gt;t_split_by_invoice_date -->
<g id="edge1" class="edge">
<title>data_csv-&gt;t_split_by_invoice_date</title>
<path fill="none" stroke="#000000" d="M124,-606.1779C124,-598.3415 124,-589.0629 124,-580.4285"/>
<polygon fill="#000000" stroke="#000000" points="127.5001,-580.3562 124,-570.3563 120.5001,-580.3563 127.5001,-580.3562"/>
</g>
<!-- offline_raw -->
<g id="node4" class="node">
<title>offline_raw</title>
<path fill="#c0c0c0" stroke="#000000" d="M123.976,-487.7654C123.976,-489.6618 109.1956,-491.2022 91,-491.2022 72.8044,-491.2022 58.024,-489.6618 58.024,-487.7654 58.024,-487.7654 58.024,-456.8346 58.024,-456.8346 58.024,-454.9382 72.8044,-453.3978 91,-453.3978 109.1956,-453.3978 123.976,-454.9382 123.976,-456.8346 123.976,-456.8346 123.976,-487.7654 123.976,-487.7654"/>
<path fill="none" stroke="#000000" d="M123.976,-487.7654C123.976,-485.8691 109.1956,-484.3286 91,-484.3286 72.8044,-484.3286 58.024,-485.8691 58.024,-487.7654"/>
<text text-anchor="middle" x="91" y="-474.7" font-family="Times,serif" font-size="8.00" fill="#000000">offline_raw.csv</text>
<text text-anchor="middle" x="91" y="-465.1" font-family="Times,serif" font-size="8.00" fill="#000000">[370931 x 8]</text>
</g>
<!-- t_split_by_invoice_date&#45;&gt;offline_raw -->
<g id="edge2" class="edge">
<title>t_split_by_invoice_date-&gt;offline_raw</title>
<path fill="none" stroke="#000000" d="M116.5118,-534.0695C112.423,-524.1696 107.2691,-511.691 102.6658,-500.5455"/>
<polygon fill="#000000" stroke="#000000" points="105.8553,-499.0991 98.8029,-491.1925 99.3854,-501.7713 105.8553,-499.0991"/>
</g>
<!-- online_raw -->
<g id="node5" class="node">
<title>online_raw</title>
<path fill="#c0c0c0" stroke="#000000" d="M224.1505,-487.7654C224.1505,-489.6618 209.7402,-491.2022 192,-491.2022 174.2598,-491.2022 159.8495,-489.6618 159.8495,-487.7654 159.8495,-487.7654 159.8495,-456.8346 159.8495,-456.8346 159.8495,-454.9382 174.2598,-453.3978 192,-453.3978 209.7402,-453.3978 224.1505,-454.9382 224.1505,-456.8346 224.1505,-456.8346 224.1505,-487.7654 224.1505,-487.7654"/>
<path fill="none" stroke="#000000" d="M224.1505,-487.7654C224.1505,-485.8691 209.7402,-484.3286 192,-484.3286 174.2598,-484.3286 159.8495,-485.8691 159.8495,-487.7654"/>
<text text-anchor="middle" x="192" y="-474.7" font-family="Times,serif" font-size="8.00" fill="#000000">online_raw.csv</text>
<text text-anchor="middle" x="192" y="-465.1" font-family="Times,serif" font-size="8.00" fill="#000000">[170978 x 8]</text>
</g>
<!-- t_split_by_invoice_date&#45;&gt;online_raw -->
<g id="edge3" class="edge">
<title>t_split_by_invoice_date-&gt;online_raw</title>
<path fill="none" stroke="#000000" d="M140.4133,-534.7093C142.9813,-531.8898 145.5835,-528.9831 148,-526.2 155.5022,-517.5599 163.4768,-507.934 170.547,-499.2348"/>
<polygon fill="#000000" stroke="#000000" points="173.4431,-501.2194 177.0036,-491.2407 167.9975,-496.821 173.4431,-501.2194"/>
</g>
<!-- kafka_input -->
<g id="node3" class="node">
<title>kafka_input</title>
<path fill="#c0c0c0" stroke="#000000" d="M213.2124,-414.3654C213.2124,-416.2618 201.0154,-417.8022 186,-417.8022 170.9846,-417.8022 158.7876,-416.2618 158.7876,-414.3654 158.7876,-414.3654 158.7876,-383.4346 158.7876,-383.4346 158.7876,-381.5382 170.9846,-379.9978 186,-379.9978 201.0154,-379.9978 213.2124,-381.5382 213.2124,-383.4346 213.2124,-383.4346 213.2124,-414.3654 213.2124,-414.3654"/>
<path fill="none" stroke="#000000" d="M213.2124,-414.3654C213.2124,-412.4691 201.0154,-410.9286 186,-410.9286 170.9846,-410.9286 158.7876,-412.4691 158.7876,-414.3654"/>
<text text-anchor="middle" x="186" y="-401.3" font-family="Times,serif" font-size="8.00" fill="#000000">kafka_input</text>
<text text-anchor="middle" x="186" y="-391.7" font-family="Times,serif" font-size="8.00" fill="#000000">[1 x 8]</text>
</g>
<!-- model_inference -->
<g id="node6" class="node">
<title>model_inference</title>
<polygon fill="#c0c0c0" stroke="#000000" points="208.7524,-125.4 143.2476,-125.4 139.2476,-121.4 139.2476,-89.4 204.7524,-89.4 208.7524,-93.4 208.7524,-125.4"/>
<polyline fill="none" stroke="#000000" points="204.7524,-121.4 139.2476,-121.4 "/>
<polyline fill="none" stroke="#000000" points="204.7524,-121.4 204.7524,-89.4 "/>
<polyline fill="none" stroke="#000000" points="204.7524,-121.4 208.7524,-125.4 "/>
<text text-anchor="middle" x="174" y="-109.8" font-family="Times,serif" font-size="8.00" fill="#000000">model_inference</text>
<text text-anchor="middle" x="174" y="-100.2" font-family="Times,serif" font-size="8.00" fill="#000000">(mini-batch)</text>
</g>
<!-- kafka_input&#45;&gt;model_inference -->
<g id="edge5" class="edge">
<title>kafka_input-&gt;model_inference</title>
<path fill="none" stroke="#000000" d="M185.2126,-379.7739C183.151,-329.6929 177.5867,-194.5272 175.1591,-135.5563"/>
<polygon fill="#000000" stroke="#000000" points="178.6523,-135.3171 174.7439,-125.4695 171.6582,-135.6051 178.6523,-135.3171"/>
</g>
<!-- t_clean_data_rows -->
<g id="node9" class="node">
<title>t_clean_data_rows</title>
<ellipse fill="#ffffff" stroke="#000000" cx="80" cy="-398.9" rx="56.0644" ry="18"/>
<text text-anchor="middle" x="80" y="-396.5" font-family="Times,serif" font-size="8.00" fill="#000000">toolkit:clean_data_rows()</text>
</g>
<!-- offline_raw&#45;&gt;t_clean_data_rows -->
<g id="edge6" class="edge">
<title>offline_raw-&gt;t_clean_data_rows</title>
<path fill="none" stroke="#000000" d="M88.1672,-453.3977C86.9593,-445.3378 85.525,-435.7668 84.198,-426.9118"/>
<polygon fill="#000000" stroke="#000000" points="87.6529,-426.3499 82.7094,-416.9791 80.7302,-427.3874 87.6529,-426.3499"/>
</g>
<!-- online_raw&#45;&gt;kafka_input -->
<g id="edge4" class="edge">
<title>online_raw-&gt;kafka_input</title>
<path fill="none" stroke="#000000" stroke-dasharray="5,2" d="M190.4549,-453.3977C189.818,-445.6066 189.0657,-436.4035 188.3624,-427.8"/>
<polygon fill="#000000" stroke="#000000" points="191.8431,-427.4198 187.5399,-417.7383 184.8664,-427.9902 191.8431,-427.4198"/>
</g>
<!-- kafka_output -->
<g id="node12" class="node">
<title>kafka_output</title>
<path fill="#c0c0c0" stroke="#000000" d="M203.2124,-50.1654C203.2124,-52.0618 190.1189,-53.6022 174,-53.6022 157.8811,-53.6022 144.7876,-52.0618 144.7876,-50.1654 144.7876,-50.1654 144.7876,-19.2346 144.7876,-19.2346 144.7876,-17.3382 157.8811,-15.7978 174,-15.7978 190.1189,-15.7978 203.2124,-17.3382 203.2124,-19.2346 203.2124,-19.2346 203.2124,-50.1654 203.2124,-50.1654"/>
<path fill="none" stroke="#000000" d="M203.2124,-50.1654C203.2124,-48.2691 190.1189,-46.7286 174,-46.7286 157.8811,-46.7286 144.7876,-48.2691 144.7876,-50.1654"/>
<text text-anchor="middle" x="174" y="-37.1" font-family="Times,serif" font-size="8.00" fill="#000000">kafka_output</text>
<text text-anchor="middle" x="174" y="-27.5" font-family="Times,serif" font-size="8.00" fill="#000000">[1 x 8]</text>
</g>
<!-- model_inference&#45;&gt;kafka_output -->
<g id="edge11" class="edge">
<title>model_inference-&gt;kafka_output</title>
<path fill="none" stroke="#000000" d="M174,-89.0547C174,-81.3393 174,-72.176 174,-63.5924"/>
<polygon fill="#000000" stroke="#000000" points="177.5001,-63.5461 174,-53.5462 170.5001,-63.5462 177.5001,-63.5461"/>
</g>
<!-- offline_cleaned -->
<g id="node7" class="node">
<title>offline_cleaned</title>
<path fill="#c0c0c0" stroke="#000000" d="M119.4155,-340.9654C119.4155,-342.8618 101.7488,-344.4022 80,-344.4022 58.2512,-344.4022 40.5845,-342.8618 40.5845,-340.9654 40.5845,-340.9654 40.5845,-310.0346 40.5845,-310.0346 40.5845,-308.1382 58.2512,-306.5978 80,-306.5978 101.7488,-306.5978 119.4155,-308.1382 119.4155,-310.0346 119.4155,-310.0346 119.4155,-340.9654 119.4155,-340.9654"/>
<path fill="none" stroke="#000000" d="M119.4155,-340.9654C119.4155,-339.0691 101.7488,-337.5286 80,-337.5286 58.2512,-337.5286 40.5845,-339.0691 40.5845,-340.9654"/>
<text text-anchor="middle" x="80" y="-327.9" font-family="Times,serif" font-size="8.00" fill="#000000">offline_cleaned.csv</text>
<text text-anchor="middle" x="80" y="-318.3" font-family="Times,serif" font-size="8.00" fill="#000000">[263815 x 10]</text>
</g>
<!-- t_transform -->
<g id="node10" class="node">
<title>t_transform</title>
<ellipse fill="#ffffff" stroke="#000000" cx="80" cy="-252.8" rx="56.0617" ry="18"/>
<text text-anchor="middle" x="80" y="-250.4" font-family="Times,serif" font-size="8.00" fill="#000000">featurologists:transform()</text>
</g>
<!-- offline_cleaned&#45;&gt;t_transform -->
<g id="edge8" class="edge">
<title>offline_cleaned-&gt;t_transform</title>
<path fill="none" stroke="#000000" d="M80,-306.7779C80,-298.9415 80,-289.6629 80,-281.0285"/>
<polygon fill="#000000" stroke="#000000" points="83.5001,-280.9562 80,-270.9563 76.5001,-280.9563 83.5001,-280.9562"/>
</g>
<!-- offline_clusters -->
<g id="node8" class="node">
<title>offline_clusters</title>
<path fill="#c0c0c0" stroke="#000000" d="M122.4219,-195.5654C122.4219,-197.4618 104.7524,-199.0022 83,-199.0022 61.2476,-199.0022 43.5781,-197.4618 43.5781,-195.5654 43.5781,-195.5654 43.5781,-164.6346 43.5781,-164.6346 43.5781,-162.7382 61.2476,-161.1978 83,-161.1978 104.7524,-161.1978 122.4219,-162.7382 122.4219,-164.6346 122.4219,-164.6346 122.4219,-195.5654 122.4219,-195.5654"/>
<path fill="none" stroke="#000000" d="M122.4219,-195.5654C122.4219,-193.6691 104.7524,-192.1286 83,-192.1286 61.2476,-192.1286 43.5781,-193.6691 43.5781,-195.5654"/>
<text text-anchor="middle" x="83" y="-182.5" font-family="Times,serif" font-size="8.00" fill="#000000">offline_clusters.csv</text>
<text text-anchor="middle" x="83" y="-172.9" font-family="Times,serif" font-size="8.00" fill="#000000">[3611 x 14]</text>
</g>
<!-- model_train -->
<g id="node11" class="node">
<title>model_train</title>
<polygon fill="#c0c0c0" stroke="#000000" points="121.3817,-125.4 60.6183,-125.4 56.6183,-121.4 56.6183,-89.4 117.3817,-89.4 121.3817,-93.4 121.3817,-125.4"/>
<polyline fill="none" stroke="#000000" points="117.3817,-121.4 56.6183,-121.4 "/>
<polyline fill="none" stroke="#000000" points="117.3817,-121.4 117.3817,-89.4 "/>
<polyline fill="none" stroke="#000000" points="117.3817,-121.4 121.3817,-125.4 "/>
<text text-anchor="middle" x="89" y="-105" font-family="Times,serif" font-size="8.00" fill="#000000">model_training</text>
</g>
<!-- offline_clusters&#45;&gt;model_train -->
<g id="edge10" class="edge">
<title>offline_clusters-&gt;model_train</title>
<path fill="none" stroke="#000000" d="M84.5451,-161.3779C85.1919,-153.5415 85.9577,-144.2629 86.6703,-135.6285"/>
<polygon fill="#000000" stroke="#000000" points="90.1671,-135.8103 87.5015,-125.5563 83.1908,-135.2345 90.1671,-135.8103"/>
</g>
<!-- t_clean_data_rows&#45;&gt;offline_cleaned -->
<g id="edge7" class="edge">
<title>t_clean_data_rows-&gt;offline_cleaned</title>
<path fill="none" stroke="#000000" d="M80,-380.7562C80,-372.7618 80,-363.1732 80,-354.2446"/>
<polygon fill="#000000" stroke="#000000" points="83.5001,-354.2014 80,-344.2014 76.5001,-354.2015 83.5001,-354.2014"/>
</g>
<!-- t_transform&#45;&gt;offline_clusters -->
<g id="edge9" class="edge">
<title>t_transform-&gt;offline_clusters</title>
<path fill="none" stroke="#000000" d="M80.757,-234.4547C81.0754,-226.7393 81.4535,-217.576 81.8077,-208.9924"/>
<polygon fill="#000000" stroke="#000000" points="85.3069,-209.082 82.2223,-198.9462 78.3129,-208.7933 85.3069,-209.082"/>
</g>
</g>
</svg>