<?xml version="1.0" encoding="UTF-8" standalone="no"?><!DOCTYPE svg PUBLIC "-//W3C//DTD SVG 1.1//EN" "http://www.w3.org/Graphics/SVG/1.1/DTD/svg11.dtd"><!-- Generated by graphviz version 2.40.1 (20161225.0304)
 --><!-- Title: G Pages: 1 --><svg xmlns="http://www.w3.org/2000/svg" xmlns:xlink="http://www.w3.org/1999/xlink" width="268pt" height="701pt" viewBox="0.00 0.00 268.00 700.80">
<g id="graph0" class="graph" transform="scale(1 1) rotate(0) translate(4 696.7998)">
<title>G</title>
<polygon fill="#ffffff" stroke="transparent" points="-4,4 -4,-696.7998 264,-696.7998 264,4 -4,4"/>
<g id="clust1" class="cluster">
<title>cluster_0</title>
<polygon fill="none" stroke="#000000" points="8,-8 8,-684.7998 252,-684.7998 252,-8 8,-8"/>
<text text-anchor="middle" x="130" y="-673.5998" font-family="Times,serif" font-size="8.00" fill="#000000">Original data</text>
<text text-anchor="middle" x="130" y="-663.9998" font-family="Times,serif" font-size="8.00" fill="#000000">(2010-12-01 - 2011-12-09)</text>
</g>
<g id="clust3" class="cluster">
<title>cluster_1</title>
<polygon fill="none" stroke="#006400" points="16,-153.4 16,-529.7332 156,-529.7332 156,-153.4 16,-153.4"/>
<text text-anchor="middle" x="86" y="-518.5332" font-family="Times,serif" font-size="8.00" fill="#000000">Offline</text>
<text text-anchor="middle" x="86" y="-508.9332" font-family="Times,serif" font-size="8.00" fill="#000000">(before 01.10.2011)</text>
</g>
<g id="clust4" class="cluster">
<title>cluster_2</title>
<polygon fill="none" stroke="#104e8b" points="164,-449.1332 164,-529.7332 244,-529.7332 244,-449.1332 164,-449.1332"/>
<text text-anchor="middle" x="204" y="-518.5332" font-family="Times,serif" font-size="8.00" fill="#000000">Online</text>
<text text-anchor="middle" x="204" y="-508.9332" font-family="Times,serif" font-size="8.00" fill="#000000">(after 01.10.2011)</text>
</g>
<g id="clust5" class="cluster">
<title>cluster_3</title>
<polygon fill="none" stroke="#000000" stroke-width="0" points="58,-81.4 58,-133.4 226,-133.4 226,-81.4 58,-81.4"/>
</g>
<!-- data_csv -->
<g id="node1" class="node">
<title>data_csv</title>
<path fill="#c0c0c0" stroke="#000000" d="M177.8273,-646.3652C177.8273,-648.2616 164.9065,-649.802 149,-649.802 133.0935,-649.802 120.1727,-648.2616 120.1727,-646.3652 120.1727,-646.3652 120.1727,-615.4344 120.1727,-615.4344 120.1727,-613.5381 133.0935,-611.9977 149,-611.9977 164.9065,-611.9977 177.8273,-613.5381 177.8273,-615.4344 177.8273,-615.4344 177.8273,-646.3652 177.8273,-646.3652"/>
<path fill="none" stroke="#000000" d="M177.8273,-646.3652C177.8273,-644.4689 164.9065,-642.9285 149,-642.9285 133.0935,-642.9285 120.1727,-644.4689 120.1727,-646.3652"/>
<text text-anchor="middle" x="149" y="-633.2998" font-family="Times,serif" font-size="8.00" fill="#000000">data.csv</text>
<text text-anchor="middle" x="149" y="-623.6998" font-family="Times,serif" font-size="8.00" fill="#000000">[541909 x 8]</text>
</g>
<!-- t_split_by_invoice_date -->
<g id="node2" class="node">
<title>t_split_by_invoice_date</title>
<ellipse fill="#ffffff" stroke="#000000" cx="149" cy="-556.9665" rx="65.0817" ry="19.4695"/>
<text text-anchor="middle" x="149" y="-559.3665" font-family="Times,serif" font-size="8.00" fill="#000000">split_by_invoice_date()</text>
<text text-anchor="middle" x="149" y="-549.7665" font-family="Times,serif" font-size="8.00" fill="#000000">(toolkit)</text>
</g>
<!-- data_csv&#45;&gt;t_split_by_invoice_date -->
<g id="edge1" class="edge">
<title>data_csv-&gt;t_split_by_invoice_date</title>
<path fill="none" stroke="#000000" d="M149,-611.8602C149,-604.1341 149,-595.0296 149,-586.48"/>
<polygon fill="#000000" stroke="#000000" points="152.5001,-586.4566 149,-576.4566 145.5001,-586.4566 152.5001,-586.4566"/>
</g>
<!-- offline_raw -->
<g id="node4" class="node">
<title>offline_raw</title>
<path fill="#c0c0c0" stroke="#000000" d="M135.976,-491.2986C135.976,-493.195 121.1956,-494.7354 103,-494.7354 84.8044,-494.7354 70.024,-493.195 70.024,-491.2986 70.024,-491.2986 70.024,-460.3678 70.024,-460.3678 70.024,-458.4715 84.8044,-456.9311 103,-456.9311 121.1956,-456.9311 135.976,-458.4715 135.976,-460.3678 135.976,-460.3678 135.976,-491.2986 135.976,-491.2986"/>
<path fill="none" stroke="#000000" d="M135.976,-491.2986C135.976,-489.4023 121.1956,-487.8619 103,-487.8619 84.8044,-487.8619 70.024,-489.4023 70.024,-491.2986"/>
<text text-anchor="middle" x="103" y="-478.2332" font-family="Times,serif" font-size="8.00" fill="#000000">offline_raw.csv</text>
<text text-anchor="middle" x="103" y="-468.6332" font-family="Times,serif" font-size="8.00" fill="#000000">[370931 x 8]</text>
</g>
<!-- t_split_by_invoice_date&#45;&gt;offline_raw -->
<g id="edge2" class="edge">
<title>t_split_by_invoice_date-&gt;offline_raw</title>
<path fill="none" stroke="#000000" d="M138.0986,-537.7391C132.3284,-527.5617 125.1379,-514.8793 118.7703,-503.6484"/>
<polygon fill="#000000" stroke="#000000" points="121.6413,-501.6156 113.6644,-494.6428 115.5519,-505.0681 121.6413,-501.6156"/>
</g>
<!-- online_raw -->
<g id="node5" class="node">
<title>online_raw</title>
<path fill="#c0c0c0" stroke="#000000" d="M236.1505,-491.2986C236.1505,-493.195 221.7402,-494.7354 204,-494.7354 186.2598,-494.7354 171.8495,-493.195 171.8495,-491.2986 171.8495,-491.2986 171.8495,-460.3678 171.8495,-460.3678 171.8495,-458.4715 186.2598,-456.9311 204,-456.9311 221.7402,-456.9311 236.1505,-458.4715 236.1505,-460.3678 236.1505,-460.3678 236.1505,-491.2986 236.1505,-491.2986"/>
<path fill="none" stroke="#000000" d="M236.1505,-491.2986C236.1505,-489.4023 221.7402,-487.8619 204,-487.8619 186.2598,-487.8619 171.8495,-489.4023 171.8495,-491.2986"/>
<text text-anchor="middle" x="204" y="-478.2332" font-family="Times,serif" font-size="8.00" fill="#000000">online_raw.csv</text>
<text text-anchor="middle" x="204" y="-468.6332" font-family="Times,serif" font-size="8.00" fill="#000000">[170978 x 8]</text>
</g>
<!-- t_split_by_invoice_date&#45;&gt;online_raw -->
<g id="edge3" class="edge">
<title>t_split_by_invoice_date-&gt;online_raw</title>
<path fill="none" stroke="#000000" d="M162.0342,-537.7391C169.0714,-527.3582 177.8754,-514.371 185.5997,-502.9764"/>
<polygon fill="#000000" stroke="#000000" points="188.5349,-504.8841 191.2491,-494.6428 182.7407,-500.9562 188.5349,-504.8841"/>
</g>
<!-- kafka_input -->
<g id="node3" class="node">
<title>kafka_input</title>
<path fill="#c0c0c0" stroke="#000000" d="M224.2124,-417.3653C224.2124,-419.2617 212.0154,-420.8021 197,-420.8021 181.9846,-420.8021 169.7876,-419.2617 169.7876,-417.3653 169.7876,-417.3653 169.7876,-386.4345 169.7876,-386.4345 169.7876,-384.5382 181.9846,-382.9978 197,-382.9978 212.0154,-382.9978 224.2124,-384.5382 224.2124,-386.4345 224.2124,-386.4345 224.2124,-417.3653 224.2124,-417.3653"/>
<path fill="none" stroke="#000000" d="M224.2124,-417.3653C224.2124,-415.469 212.0154,-413.9286 197,-413.9286 181.9846,-413.9286 169.7876,-415.469 169.7876,-417.3653"/>
<text text-anchor="middle" x="197" y="-404.2999" font-family="Times,serif" font-size="8.00" fill="#000000">kafka_input</text>
<text text-anchor="middle" x="197" y="-394.6999" font-family="Times,serif" font-size="8.00" fill="#000000">[1 x 8]</text>
</g>
<!-- model_inference -->
<g id="node6" class="node">
<title>model_inference</title>
<polygon fill="#c0c0c0" stroke="#000000" points="217.7524,-125.4 152.2476,-125.4 148.2476,-121.4 148.2476,-89.4 213.7524,-89.4 217.7524,-93.4 217.7524,-125.4"/>
<polyline fill="none" stroke="#000000" points="213.7524,-121.4 148.2476,-121.4 "/>
<polyline fill="none" stroke="#000000" points="213.7524,-121.4 213.7524,-89.4 "/>
<polyline fill="none" stroke="#000000" points="213.7524,-121.4 217.7524,-125.4 "/>
<text text-anchor="middle" x="183" y="-109.8" font-family="Times,serif" font-size="8.00" fill="#000000">model_inference</text>
<text text-anchor="middle" x="183" y="-100.2" font-family="Times,serif" font-size="8.00" fill="#000000">(mini-batch)</text>
</g>
<!-- kafka_input&#45;&gt;model_inference -->
<g id="edge5" class="edge">
<title>kafka_input-&gt;model_inference</title>
<path fill="none" stroke="#000000" d="M196.1029,-383.0296C193.7167,-332.8341 187.2019,-195.7892 184.3581,-135.9682"/>
<polygon fill="#000000" stroke="#000000" points="187.8426,-135.5578 183.8716,-125.7353 180.8505,-135.8903 187.8426,-135.5578"/>
</g>
<!-- t_clean_data_rows -->
<g id="node9" class="node">
<title>t_clean_data_rows</title>
<ellipse fill="#ffffff" stroke="#000000" cx="92" cy="-401.8999" rx="53.177" ry="19.4695"/>
<text text-anchor="middle" x="92" y="-404.2999" font-family="Times,serif" font-size="8.00" fill="#000000">clean_data_rows()</text>
<text text-anchor="middle" x="92" y="-394.6999" font-family="Times,serif" font-size="8.00" fill="#000000">(toolkit)</text>
</g>
<!-- offline_raw&#45;&gt;t_clean_data_rows -->
<g id="edge6" class="edge">
<title>offline_raw-&gt;t_clean_data_rows</title>
<path fill="none" stroke="#000000" d="M100.1672,-456.7936C99.0087,-449.0067 97.6418,-439.8195 96.3611,-431.2116"/>
<polygon fill="#000000" stroke="#000000" points="99.795,-430.508 94.8614,-421.132 92.8712,-431.5382 99.795,-430.508"/>
</g>
<!-- online_raw&#45;&gt;kafka_input -->
<g id="edge4" class="edge">
<title>online_raw-&gt;kafka_input</title>
<path fill="none" stroke="#000000" stroke-dasharray="5,2" d="M202.1973,-456.7936C201.4485,-448.885 200.563,-439.5321 199.7371,-430.8085"/>
<polygon fill="#000000" stroke="#000000" points="203.1994,-430.2447 198.7723,-420.6191 196.2306,-430.9045 203.1994,-430.2447"/>
</g>
<!-- kafka_output -->
<g id="node12" class="node">
<title>kafka_output</title>
<path fill="#c0c0c0" stroke="#000000" d="M212.2124,-50.1654C212.2124,-52.0618 199.1189,-53.6022 183,-53.6022 166.8811,-53.6022 153.7876,-52.0618 153.7876,-50.1654 153.7876,-50.1654 153.7876,-19.2346 153.7876,-19.2346 153.7876,-17.3382 166.8811,-15.7978 183,-15.7978 199.1189,-15.7978 212.2124,-17.3382 212.2124,-19.2346 212.2124,-19.2346 212.2124,-50.1654 212.2124,-50.1654"/>
<path fill="none" stroke="#000000" d="M212.2124,-50.1654C212.2124,-48.2691 199.1189,-46.7286 183,-46.7286 166.8811,-46.7286 153.7876,-48.2691 153.7876,-50.1654"/>
<text text-anchor="middle" x="183" y="-37.1" font-family="Times,serif" font-size="8.00" fill="#000000">kafka_output</text>
<text text-anchor="middle" x="183" y="-27.5" font-family="Times,serif" font-size="8.00" fill="#000000">[1 x 8]</text>
</g>
<!-- model_inference&#45;&gt;kafka_output -->
<g id="edge11" class="edge">
<title>model_inference-&gt;kafka_output</title>
<path fill="none" stroke="#000000" d="M183,-89.0547C183,-81.3393 183,-72.176 183,-63.5924"/>
<polygon fill="#000000" stroke="#000000" points="186.5001,-63.5461 183,-53.5462 179.5001,-63.5462 186.5001,-63.5461"/>
</g>
<!-- offline_cleaned -->
<g id="node7" class="node">
<title>offline_cleaned</title>
<path fill="#c0c0c0" stroke="#000000" d="M128.4155,-343.432C128.4155,-345.3284 110.7488,-346.8688 89,-346.8688 67.2512,-346.8688 49.5845,-345.3284 49.5845,-343.432 49.5845,-343.432 49.5845,-312.5012 49.5845,-312.5012 49.5845,-310.6049 67.2512,-309.0644 89,-309.0644 110.7488,-309.0644 128.4155,-310.6049 128.4155,-312.5012 128.4155,-312.5012 128.4155,-343.432 128.4155,-343.432"/>
<path fill="none" stroke="#000000" d="M128.4155,-343.432C128.4155,-341.5357 110.7488,-339.9953 89,-339.9953 67.2512,-339.9953 49.5845,-341.5357 49.5845,-343.432"/>
<text text-anchor="middle" x="89" y="-330.3666" font-family="Times,serif" font-size="8.00" fill="#000000">offline_cleaned.csv</text>
<text text-anchor="middle" x="89" y="-320.7666" font-family="Times,serif" font-size="8.00" fill="#000000">[263815 x 10]</text>
</g>
<!-- t_transform -->
<g id="node10" class="node">
<title>t_transform</title>
<ellipse fill="#ffffff" stroke="#000000" cx="86" cy="-254.0333" rx="62.4221" ry="19.4695"/>
<text text-anchor="middle" x="86" y="-256.4333" font-family="Times,serif" font-size="8.00" fill="#000000">build_client_clusters()</text>
<text text-anchor="middle" x="86" y="-246.8333" font-family="Times,serif" font-size="8.00" fill="#000000">(featurologists)</text>
</g>
<!-- offline_cleaned&#45;&gt;t_transform -->
<g id="edge8" class="edge">
<title>offline_cleaned-&gt;t_transform</title>
<path fill="none" stroke="#000000" d="M88.2274,-308.9269C87.9115,-301.1401 87.5387,-291.9529 87.1894,-283.345"/>
<polygon fill="#000000" stroke="#000000" points="90.683,-283.1152 86.7804,-273.2654 83.6888,-283.3991 90.683,-283.1152"/>
</g>
<!-- offline_clusters -->
<g id="node8" class="node">
<title>offline_clusters</title>
<path fill="#c0c0c0" stroke="#000000" d="M129.4219,-195.5654C129.4219,-197.4618 111.7524,-199.0022 90,-199.0022 68.2476,-199.0022 50.5781,-197.4618 50.5781,-195.5654 50.5781,-195.5654 50.5781,-164.6346 50.5781,-164.6346 50.5781,-162.7382 68.2476,-161.1978 90,-161.1978 111.7524,-161.1978 129.4219,-162.7382 129.4219,-164.6346 129.4219,-164.6346 129.4219,-195.5654 129.4219,-195.5654"/>
<path fill="none" stroke="#000000" d="M129.4219,-195.5654C129.4219,-193.6691 111.7524,-192.1286 90,-192.1286 68.2476,-192.1286 50.5781,-193.6691 50.5781,-195.5654"/>
<text text-anchor="middle" x="90" y="-182.5" font-family="Times,serif" font-size="8.00" fill="#000000">offline_clusters.csv</text>
<text text-anchor="middle" x="90" y="-172.9" font-family="Times,serif" font-size="8.00" fill="#000000">[3611 x 14]</text>
</g>
<!-- model_train -->
<g id="node11" class="node">
<title>model_train</title>
<polygon fill="#c0c0c0" stroke="#000000" points="130.3817,-125.4 69.6183,-125.4 65.6183,-121.4 65.6183,-89.4 126.3817,-89.4 130.3817,-93.4 130.3817,-125.4"/>
<polyline fill="none" stroke="#000000" points="126.3817,-121.4 65.6183,-121.4 "/>
<polyline fill="none" stroke="#000000" points="126.3817,-121.4 126.3817,-89.4 "/>
<polyline fill="none" stroke="#000000" points="126.3817,-121.4 130.3817,-125.4 "/>
<text text-anchor="middle" x="98" y="-105" font-family="Times,serif" font-size="8.00" fill="#000000">model_training</text>
</g>
<!-- offline_clusters&#45;&gt;model_train -->
<g id="edge10" class="edge">
<title>offline_clusters-&gt;model_train</title>
<path fill="none" stroke="#000000" d="M92.0602,-161.3779C92.9225,-153.5415 93.9436,-144.2629 94.8937,-135.6285"/>
<polygon fill="#000000" stroke="#000000" points="98.3872,-135.8791 96.0021,-125.5563 91.4292,-135.1134 98.3872,-135.8791"/>
</g>
<!-- t_clean_data_rows&#45;&gt;offline_cleaned -->
<g id="edge7" class="edge">
<title>t_clean_data_rows-&gt;offline_cleaned</title>
<path fill="none" stroke="#000000" d="M91.2118,-382.4748C90.8934,-374.6274 90.5192,-365.407 90.1702,-356.8045"/>
<polygon fill="#000000" stroke="#000000" points="93.6649,-356.6014 89.7622,-346.7516 86.6707,-356.8853 93.6649,-356.6014"/>
</g>
<!-- t_transform&#45;&gt;offline_clusters -->
<g id="edge9" class="edge">
<title>t_transform-&gt;offline_clusters</title>
<path fill="none" stroke="#000000" d="M87.051,-234.6082C87.4755,-226.7608 87.9744,-217.5404 88.4398,-208.9379"/>
<polygon fill="#000000" stroke="#000000" points="91.9382,-209.0595 88.9837,-198.885 84.9485,-208.6812 91.9382,-209.0595"/>
</g>
</g>
</svg>
