<?xml version="1.0" encoding="UTF-8" standalone="no"?><!DOCTYPE svg PUBLIC "-//W3C//DTD SVG 1.1//EN" "http://www.w3.org/Graphics/SVG/1.1/DTD/svg11.dtd"><!-- Generated by graphviz version 2.40.1 (20161225.0304)
 --><!-- Title: G Pages: 1 --><svg xmlns="http://www.w3.org/2000/svg" xmlns:xlink="http://www.w3.org/1999/xlink" width="268pt" height="706pt" viewBox="0.00 0.00 268.00 706.40">
<g id="graph0" class="graph" transform="scale(1 1) rotate(0) translate(4 702.3998)">
<title>G</title>
<polygon fill="#ffffff" stroke="transparent" points="-4,4 -4,-702.3998 264,-702.3998 264,4 -4,4"/>
<g id="clust1" class="cluster">
<title>cluster_0</title>
<polygon fill="none" stroke="#000000" points="8,-8 8,-690.3998 252,-690.3998 252,-8 8,-8"/>
<text text-anchor="middle" x="130" y="-679.1998" font-family="Times,serif" font-size="8.00" fill="#000000">Original data</text>
<text text-anchor="middle" x="130" y="-669.5998" font-family="Times,serif" font-size="8.00" fill="#000000">(2010-12-01 - 2011-12-09)</text>
</g>
<g id="clust3" class="cluster">
<title>cluster_1</title>
<polygon fill="none" stroke="#006400" points="16,-159 16,-535.3332 156,-535.3332 156,-159 16,-159"/>
<text text-anchor="middle" x="86" y="-524.1332" font-family="Times,serif" font-size="8.00" fill="#000000">Offline</text>
<text text-anchor="middle" x="86" y="-514.5332" font-family="Times,serif" font-size="8.00" fill="#000000">(before 01.10.2011)</text>
</g>
<g id="clust4" class="cluster">
<title>cluster_2</title>
<polygon fill="none" stroke="#104e8b" points="164,-454.7332 164,-535.3332 244,-535.3332 244,-454.7332 164,-454.7332"/>
<text text-anchor="middle" x="204" y="-524.1332" font-family="Times,serif" font-size="8.00" fill="#000000">Online</text>
<text text-anchor="middle" x="204" y="-514.5332" font-family="Times,serif" font-size="8.00" fill="#000000">(after 01.10.2011)</text>
</g>
<g id="clust5" class="cluster">
<title>cluster_3</title>
<polygon fill="none" stroke="#000000" stroke-width="0" points="59,-81.4 59,-151 223,-151 223,-81.4 59,-81.4"/>
<text text-anchor="middle" x="141" y="-139.8" font-family="Times,serif" font-size="8.00" fill="#000000">Customer segmentation</text>
</g>
<!-- data_csv -->
<g id="node1" class="node">
<title>data_csv</title>
<path fill="#c0c0c0" stroke="#000000" d="M177.8273,-651.9652C177.8273,-653.8616 164.9065,-655.402 149,-655.402 133.0935,-655.402 120.1727,-653.8616 120.1727,-651.9652 120.1727,-651.9652 120.1727,-621.0344 120.1727,-621.0344 120.1727,-619.1381 133.0935,-617.5977 149,-617.5977 164.9065,-617.5977 177.8273,-619.1381 177.8273,-621.0344 177.8273,-621.0344 177.8273,-651.9652 177.8273,-651.9652"/>
<path fill="none" stroke="#000000" d="M177.8273,-651.9652C177.8273,-650.0689 164.9065,-648.5285 149,-648.5285 133.0935,-648.5285 120.1727,-650.0689 120.1727,-651.9652"/>
<text text-anchor="middle" x="149" y="-638.8998" font-family="Times,serif" font-size="8.00" fill="#000000">data.csv</text>
<text text-anchor="middle" x="149" y="-629.2998" font-family="Times,serif" font-size="8.00" fill="#000000">[541909 x 8]</text>
</g>
<!-- t_split_by_invoice_date -->
<g id="node2" class="node">
<title>t_split_by_invoice_date</title>
<ellipse fill="#ffffff" stroke="#000000" cx="149" cy="-562.5665" rx="65.0817" ry="19.4695"/>
<text text-anchor="middle" x="149" y="-564.9665" font-family="Times,serif" font-size="8.00" fill="#000000">split_by_invoice_date()</text>
<text text-anchor="middle" x="149" y="-555.3665" font-family="Times,serif" font-size="8.00" fill="#000000">(toolkit)</text>
</g>
<!-- data_csv&#45;&gt;t_split_by_invoice_date -->
<g id="edge1" class="edge">
<title>data_csv-&gt;t_split_by_invoice_date</title>
<path fill="none" stroke="#000000" d="M149,-617.4602C149,-609.7341 149,-600.6296 149,-592.08"/>
<polygon fill="#000000" stroke="#000000" points="152.5001,-592.0566 149,-582.0566 145.5001,-592.0566 152.5001,-592.0566"/>
</g>
<!-- offline_raw -->
<g id="node4" class="node">
<title>offline_raw</title>
<path fill="#c0c0c0" stroke="#000000" d="M135.976,-496.8986C135.976,-498.795 121.1956,-500.3354 103,-500.3354 84.8044,-500.3354 70.024,-498.795 70.024,-496.8986 70.024,-496.8986 70.024,-465.9678 70.024,-465.9678 70.024,-464.0715 84.8044,-462.5311 103,-462.5311 121.1956,-462.5311 135.976,-464.0715 135.976,-465.9678 135.976,-465.9678 135.976,-496.8986 135.976,-496.8986"/>
<path fill="none" stroke="#000000" d="M135.976,-496.8986C135.976,-495.0023 121.1956,-493.4619 103,-493.4619 84.8044,-493.4619 70.024,-495.0023 70.024,-496.8986"/>
<text text-anchor="middle" x="103" y="-483.8332" font-family="Times,serif" font-size="8.00" fill="#000000">offline_raw.csv</text>
<text text-anchor="middle" x="103" y="-474.2332" font-family="Times,serif" font-size="8.00" fill="#000000">[370931 x 8]</text>
</g>
<!-- t_split_by_invoice_date&#45;&gt;offline_raw -->
<g id="edge2" class="edge">
<title>t_split_by_invoice_date-&gt;offline_raw</title>
<path fill="none" stroke="#000000" d="M138.0986,-543.3391C132.3284,-533.1617 125.1379,-520.4793 118.7703,-509.2484"/>
<polygon fill="#000000" stroke="#000000" points="121.6413,-507.2156 113.6644,-500.2428 115.5519,-510.6681 121.6413,-507.2156"/>
</g>
<!-- online_raw -->
<g id="node5" class="node">
<title>online_raw</title>
<path fill="#c0c0c0" stroke="#000000" d="M236.1505,-496.8986C236.1505,-498.795 221.7402,-500.3354 204,-500.3354 186.2598,-500.3354 171.8495,-498.795 171.8495,-496.8986 171.8495,-496.8986 171.8495,-465.9678 171.8495,-465.9678 171.8495,-464.0715 186.2598,-462.5311 204,-462.5311 221.7402,-462.5311 236.1505,-464.0715 236.1505,-465.9678 236.1505,-465.9678 236.1505,-496.8986 236.1505,-496.8986"/>
<path fill="none" stroke="#000000" d="M236.1505,-496.8986C236.1505,-495.0023 221.7402,-493.4619 204,-493.4619 186.2598,-493.4619 171.8495,-495.0023 171.8495,-496.8986"/>
<text text-anchor="middle" x="204" y="-483.8332" font-family="Times,serif" font-size="8.00" fill="#000000">online_raw.csv</text>
<text text-anchor="middle" x="204" y="-474.2332" font-family="Times,serif" font-size="8.00" fill="#000000">[170978 x 8]</text>
</g>
<!-- t_split_by_invoice_date&#45;&gt;online_raw -->
<g id="edge3" class="edge">
<title>t_split_by_invoice_date-&gt;online_raw</title>
<path fill="none" stroke="#000000" d="M162.0342,-543.3391C169.0714,-532.9582 177.8754,-519.971 185.5997,-508.5764"/>
<polygon fill="#000000" stroke="#000000" points="188.5349,-510.4841 191.2491,-500.2428 182.7407,-506.5562 188.5349,-510.4841"/>
</g>
<!-- kafka_input -->
<g id="node3" class="node">
<title>kafka_input</title>
<path fill="#c0c0c0" stroke="#000000" d="M224.2124,-422.9653C224.2124,-424.8617 212.0154,-426.4021 197,-426.4021 181.9846,-426.4021 169.7876,-424.8617 169.7876,-422.9653 169.7876,-422.9653 169.7876,-392.0345 169.7876,-392.0345 169.7876,-390.1382 181.9846,-388.5978 197,-388.5978 212.0154,-388.5978 224.2124,-390.1382 224.2124,-392.0345 224.2124,-392.0345 224.2124,-422.9653 224.2124,-422.9653"/>
<path fill="none" stroke="#000000" d="M224.2124,-422.9653C224.2124,-421.069 212.0154,-419.5286 197,-419.5286 181.9846,-419.5286 169.7876,-421.069 169.7876,-422.9653"/>
<text text-anchor="middle" x="197" y="-409.8999" font-family="Times,serif" font-size="8.00" fill="#000000">kafka_input</text>
<text text-anchor="middle" x="197" y="-400.2999" font-family="Times,serif" font-size="8.00" fill="#000000">[1 x 8]</text>
</g>
<!-- model_inference -->
<g id="node6" class="node">
<title>model_inference</title>
<polygon fill="#c0c0c0" stroke="#000000" points="214.7525,-125.4 151.2475,-125.4 147.2475,-121.4 147.2475,-89.4 210.7525,-89.4 214.7525,-93.4 214.7525,-125.4"/>
<polyline fill="none" stroke="#000000" points="210.7525,-121.4 147.2475,-121.4 "/>
<polyline fill="none" stroke="#000000" points="210.7525,-121.4 210.7525,-89.4 "/>
<polyline fill="none" stroke="#000000" points="210.7525,-121.4 214.7525,-125.4 "/>
<text text-anchor="middle" x="181" y="-109.8" font-family="Times,serif" font-size="8.00" fill="#000000">model inference</text>
<text text-anchor="middle" x="181" y="-100.2" font-family="Times,serif" font-size="8.00" fill="#000000">(mini-batch)</text>
</g>
<!-- kafka_input&#45;&gt;model_inference -->
<g id="edge5" class="edge">
<title>kafka_input-&gt;model_inference</title>
<path fill="none" stroke="#000000" d="M195.9991,-388.7273C193.2756,-337.6439 185.7195,-195.9195 182.4923,-135.3901"/>
<polygon fill="#000000" stroke="#000000" points="185.9873,-135.202 181.9598,-125.4026 178.9973,-135.5748 185.9873,-135.202"/>
</g>
<!-- t_clean_data_rows -->
<g id="node9" class="node">
<title>t_clean_data_rows</title>
<ellipse fill="#ffffff" stroke="#000000" cx="92" cy="-407.4999" rx="53.177" ry="19.4695"/>
<text text-anchor="middle" x="92" y="-409.8999" font-family="Times,serif" font-size="8.00" fill="#000000">clean_data_rows()</text>
<text text-anchor="middle" x="92" y="-400.2999" font-family="Times,serif" font-size="8.00" fill="#000000">(toolkit)</text>
</g>
<!-- offline_raw&#45;&gt;t_clean_data_rows -->
<g id="edge6" class="edge">
<title>offline_raw-&gt;t_clean_data_rows</title>
<path fill="none" stroke="#000000" d="M100.1672,-462.3936C99.0087,-454.6067 97.6418,-445.4195 96.3611,-436.8116"/>
<polygon fill="#000000" stroke="#000000" points="99.795,-436.108 94.8614,-426.732 92.8712,-437.1382 99.795,-436.108"/>
</g>
<!-- online_raw&#45;&gt;kafka_input -->
<g id="edge4" class="edge">
<title>online_raw-&gt;kafka_input</title>
<path fill="none" stroke="#000000" stroke-dasharray="5,2" d="M202.1973,-462.3936C201.4485,-454.485 200.563,-445.1321 199.7371,-436.4085"/>
<polygon fill="#000000" stroke="#000000" points="203.1994,-435.8447 198.7723,-426.2191 196.2306,-436.5045 203.1994,-435.8447"/>
</g>
<!-- kafka_output -->
<g id="node12" class="node">
<title>kafka_output</title>
<path fill="#c0c0c0" stroke="#000000" d="M210.2124,-50.1654C210.2124,-52.0618 197.1189,-53.6022 181,-53.6022 164.8811,-53.6022 151.7876,-52.0618 151.7876,-50.1654 151.7876,-50.1654 151.7876,-19.2346 151.7876,-19.2346 151.7876,-17.3382 164.8811,-15.7978 181,-15.7978 197.1189,-15.7978 210.2124,-17.3382 210.2124,-19.2346 210.2124,-19.2346 210.2124,-50.1654 210.2124,-50.1654"/>
<path fill="none" stroke="#000000" d="M210.2124,-50.1654C210.2124,-48.2691 197.1189,-46.7286 181,-46.7286 164.8811,-46.7286 151.7876,-48.2691 151.7876,-50.1654"/>
<text text-anchor="middle" x="181" y="-37.1" font-family="Times,serif" font-size="8.00" fill="#000000">kafka_output</text>
<text text-anchor="middle" x="181" y="-27.5" font-family="Times,serif" font-size="8.00" fill="#000000">[1 x 8]</text>
</g>
<!-- model_inference&#45;&gt;kafka_output -->
<g id="edge11" class="edge">
<title>model_inference-&gt;kafka_output</title>
<path fill="none" stroke="#000000" d="M181,-89.0547C181,-81.3393 181,-72.176 181,-63.5924"/>
<polygon fill="#000000" stroke="#000000" points="184.5001,-63.5461 181,-53.5462 177.5001,-63.5462 184.5001,-63.5461"/>
</g>
<!-- offline_cleaned -->
<g id="node7" class="node">
<title>offline_cleaned</title>
<path fill="#c0c0c0" stroke="#000000" d="M128.4155,-349.032C128.4155,-350.9284 110.7488,-352.4688 89,-352.4688 67.2512,-352.4688 49.5845,-350.9284 49.5845,-349.032 49.5845,-349.032 49.5845,-318.1012 49.5845,-318.1012 49.5845,-316.2049 67.2512,-314.6644 89,-314.6644 110.7488,-314.6644 128.4155,-316.2049 128.4155,-318.1012 128.4155,-318.1012 128.4155,-349.032 128.4155,-349.032"/>
<path fill="none" stroke="#000000" d="M128.4155,-349.032C128.4155,-347.1357 110.7488,-345.5953 89,-345.5953 67.2512,-345.5953 49.5845,-347.1357 49.5845,-349.032"/>
<text text-anchor="middle" x="89" y="-335.9666" font-family="Times,serif" font-size="8.00" fill="#000000">offline_cleaned.csv</text>
<text text-anchor="middle" x="89" y="-326.3666" font-family="Times,serif" font-size="8.00" fill="#000000">[263815 x 10]</text>
</g>
<!-- t_transform -->
<g id="node10" class="node">
<title>t_transform</title>
<ellipse fill="#ffffff" stroke="#000000" cx="86" cy="-259.6333" rx="62.4221" ry="19.4695"/>
<text text-anchor="middle" x="86" y="-262.0333" font-family="Times,serif" font-size="8.00" fill="#000000">build_client_clusters()</text>
<text text-anchor="middle" x="86" y="-252.4333" font-family="Times,serif" font-size="8.00" fill="#000000">(featurologists)</text>
</g>
<!-- offline_cleaned&#45;&gt;t_transform -->
<g id="edge8" class="edge">
<title>offline_cleaned-&gt;t_transform</title>
<path fill="none" stroke="#000000" d="M88.2274,-314.5269C87.9115,-306.7401 87.5387,-297.5529 87.1894,-288.945"/>
<polygon fill="#000000" stroke="#000000" points="90.683,-288.7152 86.7804,-278.8654 83.6888,-288.9991 90.683,-288.7152"/>
</g>
<!-- offline_clusters -->
<g id="node8" class="node">
<title>offline_clusters</title>
<path fill="#c0c0c0" stroke="#000000" d="M129.4219,-201.1654C129.4219,-203.0618 111.7524,-204.6022 90,-204.6022 68.2476,-204.6022 50.5781,-203.0618 50.5781,-201.1654 50.5781,-201.1654 50.5781,-170.2346 50.5781,-170.2346 50.5781,-168.3382 68.2476,-166.7978 90,-166.7978 111.7524,-166.7978 129.4219,-168.3382 129.4219,-170.2346 129.4219,-170.2346 129.4219,-201.1654 129.4219,-201.1654"/>
<path fill="none" stroke="#000000" d="M129.4219,-201.1654C129.4219,-199.2691 111.7524,-197.7286 90,-197.7286 68.2476,-197.7286 50.5781,-199.2691 50.5781,-201.1654"/>
<text text-anchor="middle" x="90" y="-188.1" font-family="Times,serif" font-size="8.00" fill="#000000">offline_clusters.csv</text>
<text text-anchor="middle" x="90" y="-178.5" font-family="Times,serif" font-size="8.00" fill="#000000">[3611 x 14]</text>
</g>
<!-- model_train -->
<g id="node11" class="node">
<title>model_train</title>
<polygon fill="#c0c0c0" stroke="#000000" points="129.3817,-125.4 70.6183,-125.4 66.6183,-121.4 66.6183,-89.4 125.3817,-89.4 129.3817,-93.4 129.3817,-125.4"/>
<polyline fill="none" stroke="#000000" points="125.3817,-121.4 66.6183,-121.4 "/>
<polyline fill="none" stroke="#000000" points="125.3817,-121.4 125.3817,-89.4 "/>
<polyline fill="none" stroke="#000000" points="125.3817,-121.4 129.3817,-125.4 "/>
<text text-anchor="middle" x="98" y="-105" font-family="Times,serif" font-size="8.00" fill="#000000">model training</text>
</g>
<!-- offline_clusters&#45;&gt;model_train -->
<g id="edge10" class="edge">
<title>offline_clusters-&gt;model_train</title>
<path fill="none" stroke="#000000" d="M91.9366,-166.7458C92.8838,-157.4745 94.0437,-146.1225 95.0944,-135.8387"/>
<polygon fill="#000000" stroke="#000000" points="98.6017,-135.9445 96.1363,-125.6405 91.638,-135.233 98.6017,-135.9445"/>
</g>
<!-- t_clean_data_rows&#45;&gt;offline_cleaned -->
<g id="edge7" class="edge">
<title>t_clean_data_rows-&gt;offline_cleaned</title>
<path fill="none" stroke="#000000" d="M91.2118,-388.0748C90.8934,-380.2274 90.5192,-371.007 90.1702,-362.4045"/>
<polygon fill="#000000" stroke="#000000" points="93.6649,-362.2014 89.7622,-352.3516 86.6707,-362.4853 93.6649,-362.2014"/>
</g>
<!-- t_transform&#45;&gt;offline_clusters -->
<g id="edge9" class="edge">
<title>t_transform-&gt;offline_clusters</title>
<path fill="none" stroke="#000000" d="M87.051,-240.2082C87.4755,-232.3608 87.9744,-223.1404 88.4398,-214.5379"/>
<polygon fill="#000000" stroke="#000000" points="91.9382,-214.6595 88.9837,-204.485 84.9485,-214.2812 91.9382,-214.6595"/>
</g>
</g>
</svg>
